<svg xmlns="http://www.w3.org/2000/svg" viewBox="0 0 24 24" width="24" height="24">
  <defs>
    <linearGradient id="gradient" x1="0%" y1="0%" x2="100%" y2="100%">
      <stop offset="0%" stop-color="#4f46e5" />
      <stop offset="100%" stop-color="#818cf8" />
    </linearGradient>
  </defs>
  <path fill="url(#gradient)" d="M12,2 C5.925,2 2,4.925 2,8 L2,16 C2,19.075 5.925,22 12,22 C18.075,22 22,19.075 22,16 L22,8 C22,4.925 18.075,2 12,2 Z M12,20 C7.029,20 4,17.544 4,16 L4,12.528 C5.566,14.105 8.625,16 12,16 C15.375,16 18.434,14.105 20,12.528 L20,16 C20,17.544 16.971,20 12,20 Z M12,14 C7.029,14 4,11.544 4,10 L4,8 C4,6.456 7.029,4 12,4 C16.971,4 20,6.456 20,8 L20,10 C20,11.544 16.971,14 12,14 Z" />
  <circle cx="12" cy="9" r="2" fill="white" />
</svg>